<svg width="29" height="27" viewBox="0 0 29 27" fill="none" xmlns="http://www.w3.org/2000/svg">
<g id="Chalkboard Teacher" clip-path="url(#clip0_30_17)">
<path id="Vector" d="M11.7812 18.5625C13.7833 18.5625 15.4062 17.0515 15.4062 15.1875C15.4062 13.3235 13.7833 11.8125 11.7812 11.8125C9.77922 11.8125 8.15625 13.3235 8.15625 15.1875C8.15625 17.0515 9.77922 18.5625 11.7812 18.5625Z" stroke="#868686" stroke-width="2" stroke-linecap="round" stroke-linejoin="round"/>
<path id="Vector_2" d="M6.04805 21.9374C6.56292 20.9275 7.37492 20.0744 8.38974 19.477C9.40457 18.8796 10.5806 18.5625 11.7812 18.5625C12.9819 18.5625 14.1579 18.8796 15.1728 19.477C16.1876 20.0744 16.9996 20.9275 17.5145 21.9374L24.4687 21.9375C24.5877 21.9375 24.7056 21.9157 24.8155 21.8733C24.9255 21.8309 25.0254 21.7687 25.1096 21.6904C25.1937 21.612 25.2605 21.519 25.306 21.4166C25.3516 21.3143 25.375 21.2046 25.375 21.0938V5.90625C25.375 5.68247 25.2795 5.46786 25.1096 5.30963C24.9396 5.15139 24.7091 5.0625 24.4688 5.0625H4.53125C4.2909 5.0625 4.06039 5.15139 3.89043 5.30963C3.72048 5.46786 3.625 5.68247 3.625 5.90625V21.0938C3.625 21.2046 3.64844 21.3143 3.69399 21.4167C3.73953 21.5191 3.80629 21.6121 3.89044 21.6904C3.97459 21.7688 4.0745 21.8309 4.18445 21.8733C4.2944 21.9157 4.41224 21.9375 4.53125 21.9375L6.04805 21.9374Z" stroke="#868686" stroke-width="2" stroke-linecap="round" stroke-linejoin="round"/>
<path id="Vector_3" d="M19.9375 18.5625H21.75V8.4375H7.25V10.125" stroke="#868686" stroke-width="2" stroke-linecap="round" stroke-linejoin="round"/>
</g>
<defs>
<clipPath id="clip0_30_17">
<rect width="29" height="27" fill="white"/>
</clipPath>
</defs>
</svg>
