<svg width="19" height="24" viewBox="0 0 19 24" fill="none" xmlns="http://www.w3.org/2000/svg">
<g id="XMLID_74_">
<path id="XMLID_488_" d="M18.5818 6.08787L13.3882 0.567073C13.0724 0.229638 12.6414 0.0374884 12.1976 0.0374884L2.41645 0.0093689C1.23008 0.0093689 0.265625 1.05916 0.265625 2.35266V21.652C0.265625 22.9221 1.25996 24 2.43779 24H16.9047C18.0611 24 19 22.9455 19 21.6473V7.20796C19 6.77211 18.8506 6.37375 18.5818 6.08787ZM13.3669 3.15407L16.0511 6.00351H13.832C13.5845 6.00351 13.3669 5.79262 13.3669 5.5536V3.15407ZM16.9047 22.1254H2.43779C2.19881 22.1254 1.97263 21.8957 1.97263 21.6473V2.35266C1.97263 2.10427 2.18174 1.884 2.41645 1.884L11.6599 1.91212V5.5536C11.6599 6.83304 12.6329 7.87815 13.832 7.87815H17.293V21.6473C17.293 21.8817 17.1479 22.1254 16.9047 22.1254Z" fill="#868686"/>
<path id="XMLID_490_" d="M3.97833 12.5179C3.97833 13.0334 4.36241 13.4552 4.83183 13.4552H12.3C12.7694 13.4552 13.1535 13.0334 13.1535 12.5179C13.1535 12.0024 12.7694 11.5806 12.3 11.5806H4.83183C4.36241 11.5806 3.97833 12.0024 3.97833 12.5179Z" fill="#868686"/>
<path id="XMLID_491_" d="M4.78917 9.70593H9.73948C10.2089 9.70593 10.593 9.28414 10.593 8.76862C10.593 8.25309 10.2089 7.8313 9.73948 7.8313H4.78917C4.31974 7.8313 3.93567 8.25309 3.93567 8.76862C3.93567 9.28414 4.31974 9.70593 4.78917 9.70593Z" fill="#868686"/>
<path id="XMLID_492_" d="M14.4337 15.3298H4.83183C4.36241 15.3298 3.97833 15.7516 3.97833 16.2672C3.97833 16.7827 4.36241 17.2045 4.83183 17.2045H14.4337C14.9032 17.2045 15.2872 16.7827 15.2872 16.2672C15.2872 15.7516 14.9032 15.3298 14.4337 15.3298Z" fill="#868686"/>
</g>
</svg>
